<?xml version="1.0" standalone="no"?>
<!DOCTYPE svg PUBLIC "-//W3C//DTD SVG 20010904//EN"
 "http://www.w3.org/TR/2001/REC-SVG-20010904/DTD/svg10.dtd">
<svg version="1.0" xmlns="http://www.w3.org/2000/svg"
 width="30.000000pt" height="30.000000pt" viewBox="0 0 30.000000 30.000000"
 preserveAspectRatio="xMidYMid meet">

<g transform="translate(0.000000,30.000000) scale(0.100000,-0.100000)"
fill="#000000" stroke="none">
<path d="M43 253 c-3 -10 -13 -26 -20 -35 -15 -17 -10 -38 7 -38 5 0 16 14 25
30 20 38 44 40 42 3 -1 -19 3 -28 13 -28 9 0 16 11 18 28 2 19 9 27 22 27 13
0 20 -8 22 -27 2 -17 9 -28 18 -28 10 0 14 9 13 28 -2 37 22 35 42 -3 9 -16
20 -30 25 -30 17 0 22 21 7 38 -7 9 -17 25 -20 35 -6 15 -20 17 -107 17 -87 0
-101 -2 -107 -17z"/>
<path d="M32 98 l3 -63 68 -3 67 -3 0 51 c0 49 1 50 30 50 29 0 30 -1 30 -51
0 -43 3 -50 18 -47 14 3 18 16 20 66 l3 62 -121 0 -121 0 3 -62z m98 2 c0 -27
-3 -30 -30 -30 -27 0 -30 3 -30 30 0 27 3 30 30 30 27 0 30 -3 30 -30z"/>
</g>
</svg>
